<?xml version="1.0" standalone="no"?><!DOCTYPE svg PUBLIC "-//W3C//DTD SVG 1.1//EN" "http://www.w3.org/Graphics/SVG/1.1/DTD/svg11.dtd"><svg t="1737728989588" class="icon" viewBox="0 0 1024 1024" version="1.1" xmlns="http://www.w3.org/2000/svg" p-id="10404" xmlns:xlink="http://www.w3.org/1999/xlink" width="64" height="64"><path d="M448.007679 0.122865H192.038395a63.992321 63.992321 0 0 0-63.992321 60.152782v327.640683A63.992321 63.992321 0 0 0 192.038395 448.069112h255.969284a63.992321 63.992321 0 0 0 63.992321-60.152782V60.275647A63.992321 63.992321 0 0 0 448.007679 0.122865zM384.015358 384.076791H256.030716V64.115186h127.984642zM831.961605 576.053754H575.992321a63.992321 63.992321 0 0 0-63.992321 60.152781v327.640683A63.992321 63.992321 0 0 0 575.992321 1024h255.969284a63.992321 63.992321 0 0 0 63.992321-60.152782V636.206535A63.992321 63.992321 0 0 0 831.961605 576.053754z m-63.992321 383.953925h-127.984642v-319.961605h127.984642zM703.976963 448.069112h127.984642V60.275647A60.152782 60.152782 0 0 0 767.969284 0.122865h-127.984642v63.992321h63.992321zM320.023037 576.053754H192.038395v63.99232h63.992321v383.953926h127.984642V636.206535A60.152782 60.152782 0 0 0 320.023037 576.053754z" fill="#262626" p-id="10405"></path></svg>