<?xml version="1.0" standalone="no"?><!DOCTYPE svg PUBLIC "-//W3C//DTD SVG 1.1//EN" "http://www.w3.org/Graphics/SVG/1.1/DTD/svg11.dtd"><svg t="1737729037959" class="icon" viewBox="0 0 1024 1024" version="1.1" xmlns="http://www.w3.org/2000/svg" p-id="10562" xmlns:xlink="http://www.w3.org/1999/xlink" width="64" height="64"><path d="M837.818182 0a186.181818 186.181818 0 0 1 186.181818 186.181818v651.636364a186.181818 186.181818 0 0 1-186.181818 186.181818H186.181818a186.181818 186.181818 0 0 1-186.181818-186.181818V186.181818a186.181818 186.181818 0 0 1 186.181818-186.181818h651.636364zM343.319273 315.392l-201.821091 28.299636-11.170909 77.451637 58.088727-8.192L141.498182 746.589091h141.498182l60.322909-431.197091z m554.077091 7.447273h-373.108364c-14.429091 0-27.182545 4.840727-38.353455 14.522182-9.309091 8.052364-15.406545 17.780364-18.338909 29.137454l-1.396363 6.981818-52.130909 373.108364h373.108363c14.429091 0 27.042909-4.840727 37.981091-14.522182 9.122909-8.052364 15.266909-17.780364 18.525091-29.137454l1.582546-6.981819 52.130909-373.108363zM746.216727 392.843636l-40.215272 282.996364h-140.753455l40.215273-282.996364h140.753454z" fill="#333333" p-id="10563"></path></svg>